<svg width="30" height="30" viewBox="0 0 30 30" fill="none" xmlns="http://www.w3.org/2000/svg">
<path fill-rule="evenodd" clip-rule="evenodd" d="M14.9984 0C6.71556 0 0 6.88543 0 15.3804C0 22.175 4.29748 27.9392 10.2584 29.9736C11.0087 30.1144 11.2821 29.6396 11.2821 29.2313C11.2821 28.8671 11.2696 27.8995 11.2621 26.6163C7.08945 27.5456 6.20935 24.5544 6.20935 24.5544C5.52712 22.7784 4.54341 22.3055 4.54341 22.3055C3.18145 21.3507 4.6464 21.3699 4.6464 21.3699C6.15193 21.4793 6.94401 22.9551 6.94401 22.9551C8.28226 25.305 10.455 24.626 11.3095 24.2331C11.4462 23.2392 11.8326 22.5615 12.262 22.1769C8.9314 21.7891 5.42912 20.4688 5.42912 14.576C5.42912 12.8973 6.01398 11.5239 6.97335 10.4488C6.81918 10.0597 6.30423 8.49624 7.12003 6.37858C7.12003 6.37858 8.37963 5.96516 11.2452 7.95546C12.4418 7.61436 13.7251 7.44349 15.0003 7.43773C16.2743 7.44349 17.5576 7.61436 18.756 7.95546C21.6197 5.96516 22.8769 6.37858 22.8769 6.37858C23.6952 8.49624 23.1802 10.0597 23.026 10.4488C23.9873 11.5239 24.5684 12.8973 24.5684 14.576C24.5684 20.4842 21.0605 21.7839 17.7186 22.1647C18.2579 22.6396 18.7373 23.5778 18.7373 25.0132C18.7373 27.0688 18.7192 28.7276 18.7192 29.2313C18.7192 29.6434 18.9888 30.1221 19.7503 29.9717C25.7063 27.9334 30 22.173 30 15.3804C30 6.88543 23.2838 0 14.9984 0Z" fill="#909090"/>
</svg>
