<svg width="30" height="30" viewBox="0 0 30 30" fill="none" xmlns="http://www.w3.org/2000/svg">
<path fill-rule="evenodd" clip-rule="evenodd" d="M30 15C30 23.2842 23.2842 30 15 30C6.71572 30 0 23.2842 0 15C0 6.71572 6.71572 0 15 0C23.2842 0 30 6.71572 30 15ZM15.5375 11.0737C14.0786 11.6805 11.1627 12.9364 6.78986 14.8416C6.07977 15.124 5.7078 15.4004 5.67394 15.6704C5.61672 16.127 6.18839 16.3067 6.96682 16.5514C7.07272 16.5847 7.18243 16.6192 7.2949 16.6557C8.06077 16.9047 9.09102 17.196 9.6266 17.2076C10.1124 17.2181 10.6546 17.0178 11.2533 16.6067C15.339 13.8488 17.448 12.4548 17.5803 12.4247C17.6737 12.4035 17.8032 12.3768 17.891 12.4548C17.9787 12.5328 17.97 12.6804 17.9607 12.72C17.9042 12.9615 15.6602 15.0477 14.4988 16.1273C14.1369 16.4639 13.8801 16.7025 13.8276 16.7571C13.71 16.8792 13.5901 16.9947 13.475 17.1057C12.7635 17.7917 12.2298 18.306 13.5045 19.146C14.1171 19.5497 14.6072 19.8834 15.0962 20.2164C15.6302 20.5802 16.1628 20.9429 16.8521 21.3946C17.0275 21.5097 17.1952 21.6293 17.3586 21.7457C17.9801 22.1888 18.5383 22.5868 19.2282 22.5232C19.629 22.4865 20.043 22.1096 20.2533 20.9855C20.7502 18.329 21.7271 12.573 21.9528 10.2012C21.9726 9.99342 21.9477 9.72747 21.9277 9.61073C21.9076 9.49398 21.866 9.32763 21.7142 9.20449C21.5345 9.05866 21.2571 9.02792 21.1329 9.03C20.5688 9.04005 19.7031 9.34102 15.5375 11.0737Z" fill="#909090"/>
</svg>
